<?xml version="1.0" standalone="no"?>
<!DOCTYPE svg PUBLIC "-//W3C//DTD SVG 20010904//EN"
 "http://www.w3.org/TR/2001/REC-SVG-20010904/DTD/svg10.dtd">
<svg version="1.0" xmlns="http://www.w3.org/2000/svg"
 width="400.000000pt" height="400.000000pt" viewBox="0 0 400.000000 400.000000"
 preserveAspectRatio="xMidYMid meet">
<metadata>
Created by potrace 1.11, written by Peter Selinger 2001-2013
</metadata>
<g transform="translate(0.000000,400.000000) scale(0.100000,-0.100000)"
fill="#000000" stroke="none">
<path d="M2715 3694 c-19 -9 -46 -12 -73 -8 -34 4 -52 0 -94 -23 -36 -20 -53
-24 -56 -15 -8 25 -49 11 -90 -32 -38 -40 -46 -44 -79 -39 -36 4 -40 2 -80
-49 -23 -29 -71 -81 -106 -115 -35 -34 -72 -79 -81 -100 -9 -21 -26 -55 -37
-76 -11 -21 -18 -42 -14 -45 13 -14 41 18 73 81 22 43 54 86 95 124 34 32 79
79 101 106 24 30 43 44 50 39 24 -18 61 -4 97 38 33 39 38 41 58 28 19 -11 27
-10 64 11 84 49 408 60 443 15 13 -17 41 -22 115 -23 53 -1 56 -3 85 -43 46
-66 83 -97 122 -104 20 -4 48 -15 62 -25 14 -11 47 -23 74 -28 26 -5 60 -18
75 -29 29 -22 30 -41 10 -110 -17 -54 -5 -76 42 -80 l34 -4 -24 26 c-22 24
-23 29 -13 65 31 100 -2 146 -120 170 -31 7 -62 19 -68 27 -7 7 -19 14 -26 14
-32 0 -103 42 -114 68 -6 15 -21 40 -34 55 -20 25 -30 28 -102 34 -51 3 -82
10 -87 19 -5 8 -25 14 -48 14 -22 0 -48 4 -58 10 -32 17 -163 20 -196 4z"/>
<path d="M3035 3300 c-11 -5 -35 -9 -53 -9 -18 -1 -54 -12 -80 -26 -26 -13
-67 -27 -92 -30 -49 -7 -90 -24 -90 -37 0 -13 92 -9 137 7 23 8 56 23 73 34
17 10 40 16 50 14 11 -3 34 0 52 6 18 6 34 7 37 2 3 -5 24 -11 46 -14 23 -3
61 -17 85 -31 43 -24 100 -35 100 -18 0 12 -138 82 -163 82 -14 0 -30 7 -37
15 -14 17 -34 18 -65 5z"/>
<path d="M806 3191 c-3 -4 -17 -41 -32 -82 -15 -41 -39 -100 -55 -131 -16 -32
-29 -63 -29 -70 0 -7 -10 -31 -21 -53 -19 -34 -22 -57 -23 -160 -1 -83 3 -127
12 -144 8 -13 17 -53 20 -89 6 -54 11 -67 25 -70 17 -3 18 2 11 70 -4 40 -13
87 -21 105 -19 47 -18 232 3 261 8 12 23 46 33 75 11 30 27 69 36 87 19 36 75
188 75 202 0 11 -27 11 -34 -1z"/>
<path d="M1465 3191 c-38 -3 -85 -14 -102 -24 -18 -9 -54 -20 -80 -23 -42 -6
-117 -29 -218 -67 -17 -7 -40 -22 -53 -34 -12 -13 -28 -23 -36 -23 -21 0 -85
-89 -92 -129 -4 -20 -18 -51 -32 -70 -24 -32 -25 -40 -23 -150 1 -77 7 -126
17 -145 8 -16 14 -53 14 -83 0 -48 2 -53 21 -53 21 0 22 3 15 69 -3 39 -11 82
-17 98 -6 15 -11 70 -12 122 -2 89 0 97 25 133 16 21 28 50 28 66 0 33 49 96
93 119 18 8 36 22 40 29 4 8 13 14 20 14 7 0 30 9 52 19 43 21 87 33 177 49
31 6 69 19 83 28 19 12 48 18 95 19 49 0 74 5 87 17 10 9 21 16 25 15 3 -1 10
1 14 6 8 7 -27 7 -141 -2z"/>
<path d="M2059 3186 c7 -8 31 -23 55 -35 48 -22 126 -104 126 -132 0 -23 18
-35 32 -21 16 16 48 -4 48 -29 0 -12 9 -32 19 -45 11 -14 22 -50 26 -87 4 -34
12 -68 18 -75 7 -9 6 -24 -3 -52 -8 -26 -11 -73 -8 -144 l5 -106 -36 6 c-20 4
-69 18 -110 31 -41 13 -93 26 -115 29 -72 10 -191 -13 -274 -53 -74 -35 -82
-37 -192 -38 -66 -2 -134 -8 -160 -17 -42 -13 -49 -12 -100 9 -104 43 -370 27
-423 -26 -17 -17 44 -14 110 5 62 18 244 17 276 -2 16 -9 15 -11 -9 -25 -21
-11 -28 -11 -31 -1 -5 13 -33 17 -33 4 0 -4 5 -13 12 -20 8 -8 5 -14 -15 -21
-15 -6 -26 -15 -25 -20 2 -5 -15 -37 -37 -71 l-39 -63 -13 69 c-7 38 -15 84
-18 102 -4 23 -11 32 -25 32 -16 0 -19 -5 -14 -27 2 -16 13 -72 23 -126 l18
-97 -21 6 c-12 3 -23 6 -26 6 -23 0 -32 -6 -46 -34 -18 -35 -16 -89 10 -245
16 -101 33 -140 97 -225 34 -47 48 -58 71 -58 15 0 28 2 28 5 0 3 -17 21 -39
40 -54 49 -107 155 -116 230 -4 33 -11 77 -17 99 -7 27 -6 47 3 67 13 33 17
34 62 15 29 -12 36 -23 64 -107 38 -113 48 -159 35 -159 -24 0 -74 24 -82 41
-8 13 -5 27 10 51 24 39 25 58 5 58 -20 0 -55 -58 -55 -92 0 -54 26 -78 100
-92 33 -6 37 -11 65 -81 22 -55 34 -75 48 -75 21 0 19 13 -14 89 -22 51 -49
171 -49 217 0 20 6 34 16 38 10 4 15 16 14 33 -5 78 -2 80 40 22 78 -105 157
-144 273 -137 115 7 234 72 290 157 44 68 66 209 42 276 -8 22 -15 41 -15 43
0 7 137 0 150 -8 11 -7 15 -31 16 -97 2 -153 15 -192 91 -270 112 -114 306
-135 469 -50 72 38 135 136 150 233 l7 47 14 -39 c25 -67 32 -114 39 -266 6
-115 4 -151 -6 -163 -9 -11 -10 -19 -3 -26 6 -6 8 -30 5 -55 -4 -40 -3 -44 17
-44 18 0 21 6 21 40 0 35 3 40 23 40 78 0 182 224 194 416 3 50 3 104 -1 119
-9 35 -53 75 -82 75 -22 0 -24 4 -24 55 0 48 -2 55 -20 55 -14 0 -20 -7 -20
-22 l0 -21 -22 21 c-20 18 -36 21 -118 22 -121 2 -115 3 -100 -15 23 -27 5
-209 -26 -272 -32 -66 -100 -127 -159 -142 -99 -25 -181 -10 -267 48 -86 58
-89 66 -83 209 3 69 6 127 8 128 1 1 18 11 37 23 l35 21 -42 0 c-35 0 -45 -5
-63 -30 -16 -22 -20 -38 -15 -57 3 -14 3 -69 -1 -122 -6 -80 -9 -90 -16 -61
-4 19 -7 74 -6 121 2 69 -1 89 -14 102 -41 41 -135 49 -198 17 -22 -11 -40
-25 -40 -30 0 -5 10 -25 21 -45 18 -30 21 -47 17 -105 -13 -171 -145 -290
-323 -290 -93 0 -140 24 -206 103 -56 66 -57 70 -62 194 -2 51 -8 98 -15 106
-10 12 -3 22 42 56 34 25 66 41 83 41 23 0 20 -3 -24 -25 -68 -34 -91 -60 -75
-85 7 -12 12 -57 12 -111 0 -106 11 -131 85 -193 106 -88 276 -89 366 -2 41
38 86 124 99 188 10 51 9 62 -8 100 -26 57 -51 81 -106 104 -25 11 -46 21 -46
24 1 9 146 69 205 85 33 8 81 15 107 15 59 0 146 -18 154 -32 5 -7 2 -8 -5 -4
-7 5 -69 7 -139 7 -118 -2 -131 -4 -189 -31 -67 -31 -73 -39 -45 -56 12 -8 25
-7 46 1 17 7 24 14 16 17 -7 2 8 12 35 22 40 16 68 18 174 14 85 -4 138 -10
165 -22 21 -9 50 -16 65 -16 l26 1 -28 23 -29 23 46 -7 c46 -7 74 -20 43 -20
-9 0 -19 -4 -22 -10 -4 -6 19 -10 62 -10 64 0 66 1 45 16 -12 8 -22 22 -22 29
0 8 -11 17 -25 21 l-24 6 1 162 c2 201 -7 276 -38 318 -13 18 -24 42 -24 55 0
16 -10 27 -38 40 -22 10 -58 41 -82 68 -44 52 -116 95 -158 95 -20 0 -22 -3
-13 -14z m-406 -793 c-18 -2 -48 -2 -65 0 -18 2 -4 4 32 4 36 0 50 -2 33 -4z
m1143 -137 c-11 -152 -49 -246 -123 -302 -112 -85 -297 -88 -413 -6 -44 31
-100 99 -100 120 0 11 8 5 22 -15 30 -42 133 -110 193 -128 140 -42 279 7 355
126 42 65 49 94 51 221 1 76 5 105 12 93 5 -10 6 -55 3 -109z m-1031 82 c31
-12 67 -34 82 -52 23 -28 25 -36 21 -102 -4 -63 -10 -79 -44 -130 -57 -85 -98
-106 -199 -101 -90 4 -122 17 -178 73 -48 48 -59 88 -55 194 l3 85 54 28 c49
24 65 27 157 27 81 0 114 -5 159 -22z m1123 -12 c94 -48 100 -67 36 -107 -33
-20 -44 -44 -23 -51 6 -2 9 -26 7 -58 -2 -30 -6 -48 -9 -40 -25 63 -39 122
-39 162 0 26 -4 49 -9 52 -8 6 -21 66 -14 66 2 0 25 -11 51 -24z m182 -101
c13 -14 19 -25 14 -25 -21 -1 -89 -12 -93 -16 -2 -2 -1 -10 3 -19 5 -13 15
-15 52 -9 l47 7 -6 -89 c-3 -49 -13 -107 -21 -129 l-15 -40 0 41 c-1 46 -38
91 -65 81 -22 -9 -20 -24 4 -37 15 -8 20 -21 20 -50 0 -36 -4 -41 -40 -60 -40
-20 -49 -33 -30 -45 13 -8 86 30 100 52 25 41 -3 -34 -36 -93 -38 -69 -57 -89
-79 -80 -20 7 -20 157 0 241 8 33 15 98 15 145 l0 85 48 32 c26 17 50 32 53
32 3 1 16 -10 29 -24z m-1803 -141 c-4 -101 -10 -137 -20 -123 -9 13 -37 120
-37 143 0 21 45 96 58 96 1 0 1 -52 -1 -116z m-92 3 c7 -7 3 -7 -10 -2 -11 5
-35 9 -52 9 -25 0 -30 2 -22 12 11 13 64 2 84 -19z m132 -29 c-3 -8 -6 -5 -6
6 -1 11 2 17 5 13 3 -3 4 -12 1 -19z"/>
<path d="M1576 2223 c-39 -6 -136 -80 -129 -99 8 -20 13 -18 72 26 47 35 60
40 107 40 54 0 70 -7 152 -66 17 -13 26 -14 34 -6 16 16 -23 57 -84 88 -45 23
-82 27 -152 17z"/>
<path d="M2360 3172 c0 -29 52 -136 99 -207 36 -52 48 -84 65 -175 8 -41 17
-88 21 -105 3 -16 9 -87 14 -157 4 -71 10 -131 14 -134 3 -4 13 -4 21 -1 12 5
13 13 5 39 -5 18 -9 71 -9 118 0 165 -45 353 -109 452 -25 40 -54 90 -63 110
l-17 37 37 -16 c20 -8 50 -24 66 -36 32 -23 120 -35 130 -19 6 10 -86 62 -110
62 -5 0 -36 14 -68 30 -76 38 -96 39 -96 2z"/>
<path d="M2382 2309 c-53 -10 -86 -36 -129 -99 -38 -56 -41 -70 -15 -70 11 0
27 16 39 38 41 72 95 102 184 102 57 0 90 -13 145 -57 45 -36 64 -41 64 -18 0
23 -47 62 -107 90 -54 26 -102 30 -181 14z"/>
<path d="M1829 1853 c-42 -98 -42 -92 -7 -125 29 -27 38 -30 78 -25 25 2 52 8
61 11 9 4 23 1 30 -7 19 -19 54 -37 72 -37 8 0 34 13 58 30 37 25 54 30 105
30 50 0 64 4 82 23 28 30 46 87 31 102 -12 12 -39 -19 -39 -46 0 -27 -21 -36
-91 -41 -54 -3 -72 -9 -98 -31 -39 -32 -62 -34 -87 -6 -17 19 -26 20 -90 14
-95 -9 -105 3 -75 81 11 31 19 60 15 65 -11 19 -25 7 -45 -38z"/>
<path d="M2235 1575 c17 -14 38 -28 48 -31 9 -3 17 -10 17 -15 0 -6 8 -8 19
-4 15 4 20 -1 25 -26 3 -17 6 -41 6 -52 0 -25 49 -129 101 -217 22 -38 71 -94
114 -135 42 -38 115 -107 163 -153 123 -117 159 -133 322 -140 103 -4 144 -1
202 13 125 30 175 64 287 193 29 35 77 78 105 97 29 19 59 47 67 62 7 16 42
76 77 134 57 97 122 248 122 284 0 8 -8 15 -18 15 -14 0 -22 -12 -31 -52 -12
-57 -45 -125 -136 -287 -49 -86 -66 -108 -105 -132 -26 -16 -74 -60 -105 -99
-115 -137 -204 -185 -366 -197 -85 -6 -228 11 -275 33 -17 8 -70 52 -117 97
-124 118 -210 197 -223 205 -12 8 -77 118 -118 201 -16 32 -31 85 -36 126 -5
39 -12 79 -16 88 -7 20 -41 18 -36 -1 3 -17 -20 -15 -44 3 -10 8 -32 14 -49
14 l-30 0 30 -24z"/>
<path d="M3495 1572 c-11 -2 -104 -33 -207 -69 l-188 -65 -92 5 c-51 3 -140
10 -197 16 -74 8 -107 9 -115 1 -17 -17 13 -30 72 -30 29 0 87 -7 129 -16 128
-26 201 -17 406 54 98 34 187 62 198 62 21 0 37 27 23 39 -5 4 -18 6 -29 3z"/>
<path d="M3195 1353 c-27 -11 -79 -18 -158 -20 -104 -4 -118 -6 -115 -21 3
-15 19 -17 112 -20 94 -2 113 0 143 18 19 11 47 20 64 20 31 0 41 23 13 34 -9
3 -16 6 -17 6 -1 -1 -20 -8 -42 -17z"/>
<path d="M3704 1125 c3 -9 11 -59 17 -110 9 -79 9 -102 -5 -148 -20 -68 -20
-69 0 -65 19 3 43 74 45 128 l1 35 14 -30 c7 -16 21 -54 29 -82 l16 -53 57 0
57 1 -47 24 c-40 21 -48 31 -64 77 -9 29 -29 71 -44 93 -15 22 -31 62 -36 90
-7 37 -14 51 -28 53 -14 3 -17 0 -12 -13z"/>
<path d="M2544 1052 c-4 -12 -11 -22 -17 -22 -28 0 -95 -45 -109 -73 -17 -37
-43 -117 -53 -165 -7 -32 -44 -88 -98 -146 -27 -29 -31 -51 -10 -51 6 0 36 30
66 68 45 54 61 84 81 151 14 46 26 89 26 95 0 33 78 97 96 78 3 -3 -1 -38 -9
-78 -18 -91 -16 -122 11 -176 24 -47 28 -89 10 -96 -10 -4 -10 -7 -1 -17 10
-11 15 -11 28 0 21 17 19 69 -4 123 -21 49 -21 69 -1 215 10 72 10 96 1 105
-9 9 -13 7 -17 -11z"/>
<path d="M1025 776 c-12 -13 -47 -33 -80 -45 -32 -12 -80 -40 -106 -62 -26
-22 -53 -38 -61 -37 -7 2 -13 -6 -13 -17 0 -35 28 -27 88 25 32 27 65 50 73
50 8 0 33 9 55 21 23 11 42 19 43 17 8 -11 26 -117 27 -156 1 -63 12 -97 29
-97 8 0 14 6 12 13 -10 49 -25 197 -26 250 0 67 -9 75 -41 38z"/>
<path d="M1190 792 c0 -5 7 -15 15 -22 9 -7 45 -57 81 -112 35 -54 71 -98 79
-98 20 0 20 2 -17 62 -73 119 -115 173 -136 176 -12 2 -22 -1 -22 -6z"/>
<path d="M2556 791 c5 -5 41 -19 79 -31 39 -12 93 -35 121 -51 56 -32 74 -36
74 -16 0 16 -103 73 -167 92 -53 16 -123 20 -107 6z"/>
</g>
</svg>
